# xmcd CD database file
#
# Track frame offsets:
#	150
#	21526
#	41032
#	56592
#	72739
#	89618
#	105960
#	124188
#	137937
#	157501
#	177711
#	191824
#	209465
#
# Disc length: 3057 seconds
#
# Revision: 0
# Processed by: cddbd v1.5.2PL0 Copyright (c) Steve Scherf et al.
# Submitted via: CDex 1.70beta2
#
DISCID=c60bef0d
DTITLE=Omnibus - flow life - with sunshine -
DYEAR=2009
DGENRE=Jazz
TTITLE0=P.I.C - Old Sole
TTITLE1=ShinSight Trio - Lucky Dayz
TTITLE2=DJ Mitsu The Beats Feat. Roddy Rod and Key Brown - Yeah Y'all
TTITLE3=Ladybug Mecca - If I Need To Move On (Sometimes)
TTITLE4=Strange Fruit Project - Ooh Wee
TTITLE5=Hocus Pocus Feat. Omar - Smile
TTITLE6=Raashan Ahmad Of Crown City Rockers - Happy
TTITLE7=People Under The Stairs - Tales of Kid Drunkadelic
TTITLE8=Speach Impediments - Keep Breathin'
TTITLE9=Starving Artists Crew - Five Day Trippin'
TTITLE10=3582 - Vanessa From Venezuela
TTITLE11=Zion I and The Grouch - Trains And Planes
TTITLE12=Reel Carter - Amour Supreme
EXTD=YEAR: 2009
EXTT0=
EXTT1=
EXTT2=
EXTT3=
EXTT4=
EXTT5=
EXTT6=
EXTT7=
EXTT8=
EXTT9=
EXTT10=
EXTT11=
EXTT12=
PLAYORDER=
